<svg width="33" height="37" viewBox="0 0 33 37" fill="none" xmlns="http://www.w3.org/2000/svg">
<path fill-rule="evenodd" clip-rule="evenodd" d="M0 20.7211C0.0620826 13.1644 5.47639 6.69737 12.9437 5.43798C18.1752 4.55571 22.723 6.0457 26.5698 9.69122C26.9801 10.0799 27.1386 10.5465 26.9601 11.089C26.7985 11.5799 26.4368 11.8711 25.9282 11.9555C25.4462 12.0353 25.0675 11.8282 24.7297 11.4982C23.0184 9.82464 20.9959 8.71217 18.6734 8.13414C11.5354 6.35804 4.17496 11.1033 2.86197 18.3315C1.58137 25.3792 5.95454 32.0101 12.9699 33.4743C17.4202 34.4028 21.3425 33.1889 24.6722 30.0925C25.0363 29.7539 25.4134 29.4956 25.9316 29.5827C26.4395 29.6679 26.8004 29.9606 26.9616 30.4515C27.1336 30.9763 26.9878 31.4329 26.5972 31.82C25.1384 33.2653 23.4618 34.3874 21.5627 35.1644C12.9541 38.6842 3.25144 34.0041 0.655924 25.0777C0.471604 24.4437 0.326225 23.7932 0.232137 23.1408C0.116455 22.3395 0.0740364 21.5282 0 20.7211Z" fill="#CA282C"/>
<path fill-rule="evenodd" clip-rule="evenodd" d="M24.6969 20.0846C26.5141 20.0846 28.2916 20.0846 30.1117 20.0846C30.1117 19.9376 30.1117 19.8073 30.1117 19.677C30.1117 18.6631 30.1057 17.6491 30.1141 16.6351C30.1204 15.9203 30.6342 15.3978 31.2974 15.4096C31.9481 15.4211 32.4364 15.937 32.4389 16.6389C32.4448 18.1538 32.4441 19.6687 32.4392 21.1836C32.4368 21.9527 31.9509 22.4282 31.1675 22.4292C29.1517 22.4327 27.1359 22.4306 25.1204 22.4306C24.9902 22.4306 24.8602 22.4306 24.7303 22.4306C24.7125 22.4613 24.6948 22.4919 24.6777 22.5226C25.1539 22.9858 25.6318 23.4477 26.1062 23.9131C26.4131 24.2144 26.5667 24.5767 26.473 25.0079C26.3783 25.4458 26.1167 25.7492 25.6809 25.8878C25.211 26.0376 24.8142 25.901 24.4767 25.5659C23.5843 24.6787 22.6964 23.7874 21.8057 22.8984C21.5375 22.6309 21.262 22.3707 20.9986 22.099C20.5214 21.6072 20.5179 20.9168 21.0031 20.4294C22.1495 19.2775 23.3 18.1308 24.4555 16.9883C24.9703 16.4794 25.6868 16.472 26.1546 16.9527C26.612 17.423 26.5925 18.1204 26.0989 18.6261C25.6551 19.0807 25.203 19.5269 24.7554 19.9777C24.7387 19.9933 24.732 20.0181 24.6969 20.0846Z" fill="#E89C1E"/>
<path fill-rule="evenodd" clip-rule="evenodd" d="M16.9123 16.2357C16.9123 17.6956 16.905 19.1555 16.9165 20.6154C16.92 21.0778 16.7696 21.4491 16.4426 21.775C14.3357 23.8734 12.2361 25.9796 10.1314 28.0812C9.53644 28.675 8.76098 28.7062 8.22421 28.1702C7.6886 27.6358 7.71791 26.8588 8.31291 26.2619C10.2309 24.3377 12.1582 22.4224 14.0669 20.4886C14.2154 20.3382 14.3245 20.0756 14.3257 19.8643C14.343 17.1608 14.3334 14.4573 14.3392 11.7538C14.3411 10.7655 15.2442 10.1196 16.1087 10.4879C16.6462 10.7169 16.9119 11.1461 16.9119 11.7345C16.9123 13.2349 16.9123 14.7353 16.9123 16.2357Z" fill="#CA282C"/>
<path fill-rule="evenodd" clip-rule="evenodd" d="M15.6371 2.57562C14.5427 2.57562 13.4488 2.57755 12.3544 2.57523C11.5184 2.57331 10.9354 2.04888 10.9296 1.29964C10.9234 0.534215 11.5115 0.00207663 12.3722 0.00130541C14.5474 -0.000237012 16.7222 -0.000622618 18.897 0.00130541C19.7361 0.00207663 20.3145 0.523425 20.3211 1.27574C20.3276 2.04233 19.7403 2.57369 18.8793 2.57523C17.7984 2.57716 16.7176 2.57562 15.6371 2.57562Z" fill="#CA282C"/>
</svg>
