<svg width="34" height="37" viewBox="0 0 34 37" fill="none" xmlns="http://www.w3.org/2000/svg">
<path fill-rule="evenodd" clip-rule="evenodd" d="M0 20.7211C0.0620826 13.1644 5.47639 6.69737 12.9437 5.43798C18.1752 4.55571 22.723 6.0457 26.5698 9.69122C26.9801 10.0799 27.1386 10.5465 26.9601 11.089C26.7985 11.5799 26.4368 11.8711 25.9282 11.9555C25.4462 12.0353 25.0675 11.8282 24.7297 11.4982C23.0184 9.82464 20.9959 8.71217 18.6734 8.13414C11.5354 6.35804 4.17496 11.1033 2.86197 18.3315C1.58137 25.3792 5.95454 32.0101 12.9699 33.4743C17.4202 34.4028 21.3425 33.1889 24.6722 30.0925C25.0363 29.7539 25.4134 29.4956 25.9316 29.5827C26.4395 29.6679 26.8004 29.9606 26.9616 30.4515C27.1336 30.9763 26.9878 31.4329 26.5972 31.82C25.1384 33.2653 23.4618 34.3874 21.5627 35.1644C12.9541 38.6842 3.25144 34.0041 0.655924 25.0777C0.471604 24.4437 0.326225 23.7932 0.232137 23.1408C0.116455 22.3395 0.0740364 21.5282 0 20.7211Z" fill="#CA282C"/>
<path fill-rule="evenodd" clip-rule="evenodd" d="M29.5355 20.2153C27.6673 20.2153 25.8399 20.2153 23.9688 20.2153C23.9688 20.0743 23.9688 19.9493 23.9688 19.8243C23.9688 18.8514 23.9749 17.8784 23.9663 16.9055C23.9598 16.2197 23.4316 15.7184 22.7498 15.7297C22.0809 15.7408 21.5788 16.2357 21.5763 16.9092C21.5702 18.3627 21.5709 19.8162 21.5759 21.2698C21.5784 22.0077 22.078 22.4639 22.8834 22.4649C24.9557 22.4683 27.028 22.4663 29.1 22.4663C29.234 22.4663 29.3675 22.4663 29.5011 22.4663C29.5194 22.4957 29.5376 22.5251 29.5552 22.5545C29.0656 22.999 28.5743 23.4422 28.0866 23.8887C27.7711 24.1778 27.6132 24.5254 27.7095 24.9392C27.8069 25.3593 28.0758 25.6504 28.5238 25.7834C29.0069 25.9271 29.4148 25.7961 29.7618 25.4746C30.6792 24.6233 31.5921 23.7681 32.5077 22.9151C32.7835 22.6585 33.0667 22.4088 33.3375 22.1481C33.8281 21.6762 33.8316 21.0138 33.3328 20.5462C32.1543 19.4409 30.9715 18.3407 29.7836 17.2444C29.2544 16.7561 28.5177 16.7491 28.0368 17.2103C27.5666 17.6615 27.5867 18.3306 28.0941 18.8159C28.5503 19.2521 29.0152 19.6802 29.4753 20.1127C29.4925 20.1277 29.4993 20.1515 29.5355 20.2153Z" fill="#E89C1E"/>
<path fill-rule="evenodd" clip-rule="evenodd" d="M16.9123 16.2357C16.9123 17.6956 16.905 19.1555 16.9165 20.6154C16.92 21.0778 16.7696 21.4491 16.4426 21.775C14.3357 23.8734 12.2361 25.9796 10.1314 28.0812C9.53644 28.675 8.76098 28.7062 8.22421 28.1702C7.68861 27.6358 7.71792 26.8588 8.31291 26.2619C10.2309 24.3377 12.1582 22.4224 14.0669 20.4886C14.2154 20.3382 14.3245 20.0756 14.3257 19.8643C14.343 17.1608 14.3334 14.4573 14.3392 11.7538C14.3411 10.7655 15.2442 10.1196 16.1087 10.4879C16.6462 10.7169 16.9119 11.1461 16.9119 11.7345C16.9123 13.2349 16.9123 14.7353 16.9123 16.2357Z" fill="#CA282C"/>
<path fill-rule="evenodd" clip-rule="evenodd" d="M15.6371 2.57562C14.5428 2.57562 13.4488 2.57755 12.3544 2.57523C11.5184 2.57331 10.9354 2.04888 10.9296 1.29964C10.9235 0.534215 11.5115 0.00207663 12.3722 0.00130541C14.5474 -0.000237012 16.7222 -0.000622618 18.897 0.00130541C19.7361 0.00207663 20.3145 0.523425 20.3211 1.27574C20.3276 2.04233 19.7404 2.57369 18.8793 2.57523C17.7984 2.57716 16.7176 2.57562 15.6371 2.57562Z" fill="#CA282C"/>
</svg>
