<!DOCTYPE svg PUBLIC "-//W3C//DTD SVG 1.1//EN" "http://www.w3.org/Graphics/SVG/1.1/DTD/svg11.dtd">
<!-- Uploaded to: SVG Repo, www.svgrepo.com, Transformed by: SVG Repo Mixer Tools -->
<svg fill="#000000" height="64px" width="64px" version="1.1" id="Layer_1" xmlns="http://www.w3.org/2000/svg" xmlns:xlink="http://www.w3.org/1999/xlink" viewBox="-155.37 -155.37 621.49 621.49" xml:space="preserve" stroke="#000000" stroke-width="7.147158">
<g id="SVGRepo_bgCarrier" stroke-width="0"/>
<g id="SVGRepo_tracerCarrier" stroke-linecap="round" stroke-linejoin="round"/>
<g id="SVGRepo_iconCarrier"> <g id="XMLID_227_"> <path id="XMLID_228_" d="M32.622,75.373c0,23.666,18.367,43.109,41.594,44.857c-7.382-13.302-11.594-28.596-11.594-44.857 s4.212-31.556,11.594-44.857C50.989,32.264,32.622,51.707,32.622,75.373z"/> <path id="XMLID_229_" d="M0,227.996c0,8.284,6.716,15,15,15h1.025c11.602-40.229,40.192-73.322,77.464-90.984 c-5.17-1.077-10.482-1.639-15.867-1.639C34.821,150.373,0,185.194,0,227.996z"/> <path id="XMLID_230_" d="M278.124,75.373c0-23.666-18.367-43.109-41.594-44.857c7.382,13.302,11.594,28.596,11.594,44.857 s-4.212,31.556-11.594,44.857C259.757,118.482,278.124,99.039,278.124,75.373z"/> <path id="XMLID_231_" d="M295.746,242.996c8.284,0,15-6.716,15-15c0-42.802-34.821-77.623-77.622-77.623 c-5.385,0-10.697,0.561-15.867,1.639c37.271,17.662,65.862,50.756,77.464,90.984H295.746z"/> <path id="XMLID_232_" d="M155.373,138.123c21.093,0,39.774-10.473,51.157-26.479c7.289-10.25,11.594-22.764,11.594-36.271 s-4.305-26.021-11.594-36.271c-11.383-16.006-30.064-26.479-51.157-26.479c-34.601,0-62.75,28.149-62.75,62.75 S120.772,138.123,155.373,138.123z"/> <path id="XMLID_233_" d="M270.373,283.123c0-14.107-2.56-27.627-7.229-40.127c-13.457-36.025-44.485-63.549-82.606-72.092 c-8.102-1.816-16.522-2.781-25.165-2.781c-63.411,0-115,51.589-115,115c0,8.284,6.716,15,15,15h200 C263.657,298.123,270.373,291.407,270.373,283.123z"/> </g> </g>
</svg>